<svg width="17" height="17" viewBox="0 0 17 17" fill="none" xmlns="http://www.w3.org/2000/svg">
<path d="M8.5 0C3.81397 0 0 3.81397 0 8.5C0 13.186 3.81397 17 8.5 17C13.186 17 17 13.186 17 8.5C17 3.81397 13.186 0 8.5 0ZM8.5 1.41667C12.4204 1.41667 15.5833 4.57959 15.5833 8.5C15.5833 12.4204 12.4204 15.5833 8.5 15.5833C4.57959 15.5833 1.41667 12.4204 1.41667 8.5C1.41667 4.57959 4.57959 1.41667 8.5 1.41667ZM8.5 2.83333C8.10758 2.83333 7.79167 3.14925 7.79167 3.54167V8.5C7.79167 8.89242 8.10758 9.20833 8.5 9.20833H13.4583C13.8507 9.20833 14.1667 8.89242 14.1667 8.5C14.1667 8.10758 13.8507 7.79167 13.4583 7.79167H9.20833V3.54167C9.20833 3.14925 8.89242 2.83333 8.5 2.83333Z" fill="white"/>
</svg>
