<svg width="27" height="30" viewBox="0 0 27 30" fill="none" xmlns="http://www.w3.org/2000/svg">
<path fill-rule="evenodd" clip-rule="evenodd" d="M17.5 0.500001H12.0915C9.64111 0.499974 7.70025 0.49996 6.18131 0.706561C4.61808 0.919165 3.35281 1.36714 2.35499 2.37656C1.35717 3.38599 0.914347 4.66597 0.704187 6.24737C0.499961 7.78398 0.499974 9.74739 0.500001 12.2262V20.3953C0.500001 22.9206 2.3294 25.0138 4.72068 25.3924C4.90464 26.4229 5.25671 27.3025 5.96447 28.0186C6.76703 28.8304 7.77752 29.1796 8.97767 29.3429C10.1336 29.5 11.6033 29.5 13.4268 29.5H17.5732C19.3967 29.5 20.8664 29.5 22.0224 29.3429C23.2225 29.1796 24.2329 28.8304 25.0356 28.0186C25.8381 27.2066 26.1833 26.1844 26.3447 24.9703C26.5 23.8009 26.5 22.3141 26.5 20.4694V13.5771C26.5 11.7325 26.5 10.2456 26.3447 9.07624C26.1833 7.86214 25.8381 6.8399 25.0356 6.02801C24.3277 5.31202 23.4583 4.95586 22.4396 4.76976C22.0653 2.35067 19.9963 0.500001 17.5 0.500001ZM20.3391 4.57507C19.9353 3.38143 18.8168 2.52326 17.5 2.52326H12.1667C9.62424 2.52326 7.81801 2.5254 6.4478 2.71177C5.10635 2.89421 4.33348 3.23637 3.7692 3.80721C3.20492 4.37806 2.86669 5.15991 2.68635 6.51696C2.50212 7.90311 2.5 9.73034 2.5 12.3023V20.3953C2.5 21.7275 3.34832 22.859 4.52823 23.2674C4.49997 22.4448 4.49999 21.5145 4.5 20.4694V13.5771C4.49997 11.7325 4.49995 10.2456 4.65536 9.07624C4.81672 7.86214 5.16191 6.8399 5.96447 6.02801C6.76703 5.21612 7.77752 4.86691 8.97767 4.70368C10.1336 4.54646 11.6033 4.54649 13.4268 4.54651H17.5732C18.6063 4.5465 19.5259 4.54649 20.3391 4.57507ZM7.37868 7.45866C7.74769 7.08536 8.2658 6.84196 9.24416 6.7089C10.2513 6.57191 11.5861 6.56977 13.5 6.56977H17.5C19.4139 6.56977 20.7487 6.57191 21.7559 6.7089C22.7343 6.84196 23.2523 7.08536 23.6213 7.45866C23.9904 7.83197 24.2309 8.3561 24.3625 9.34584C24.4979 10.3647 24.5 11.715 24.5 13.6512V20.3953C24.5 22.3315 24.4979 23.6818 24.3625 24.7007C24.2309 25.6905 23.9904 26.2145 23.6213 26.5879C23.2523 26.9612 22.7343 27.2045 21.7559 27.3377C20.7487 27.4746 19.4139 27.4767 17.5 27.4767H13.5C11.5861 27.4767 10.2513 27.4746 9.24416 27.3377C8.2658 27.2045 7.74769 26.9612 7.37868 26.5879C7.00967 26.2145 6.76907 25.6905 6.63753 24.7007C6.50212 23.6818 6.5 22.3315 6.5 20.3953V13.6512C6.5 11.715 6.50212 10.3647 6.63753 9.34584C6.76907 8.3561 7.00967 7.83197 7.37868 7.45866Z" fill="#058173"/>
</svg>
