<svg width="27" height="32" viewBox="0 0 27 32" fill="none" xmlns="http://www.w3.org/2000/svg">
<path d="M5.39941 15.036C5.39941 10.674 5.39941 8.49307 6.66474 7.13798C7.93006 5.7829 9.96658 5.7829 14.0396 5.7829H18.3597C22.4327 5.7829 24.4692 5.7829 25.7346 7.13798C26.9999 8.49307 26.9999 10.6741 26.9999 15.036V22.747C26.9999 27.1089 26.9999 29.2899 25.7346 30.645C24.4692 32 22.4327 32 18.3597 32H14.0396C9.96658 32 7.93006 32 6.66474 30.645C5.39941 29.2899 5.39941 27.1089 5.39941 22.747V15.036Z" fill="#058173"/>
<path opacity="0.5" d="M1.75739 1.87453C-1.78818e-07 3.74908 0 6.76608 0 12.8001V16.0002C0 22.0341 -1.78818e-07 25.0513 1.75739 26.9257C2.68375 27.9139 3.90774 28.3811 5.6867 28.602C5.39953 27.2568 5.39953 25.4076 5.39953 22.7469V15.036C5.39953 10.674 5.39953 8.49305 6.66486 7.13796C7.93018 5.78287 9.9667 5.78287 14.0397 5.78287H18.3598C20.8377 5.78287 22.5619 5.78287 23.8171 6.08797C23.611 4.17838 23.1731 2.86649 22.2431 1.87453C20.4858 1.90737e-07 17.6572 0 12.0003 0C6.34328 0 3.5148 1.90737e-07 1.75739 1.87453Z" fill="#058173"/>
</svg>
