<svg width="28" height="28" viewBox="0 0 28 28" fill="none" xmlns="http://www.w3.org/2000/svg">
<path opacity="0.5" fill-rule="evenodd" clip-rule="evenodd" d="M16.452 27.71H10.968C5.79763 27.71 3.21246 27.71 1.60622 26.1038C1.63436e-07 24.4977 0 21.9124 0 16.742V11.258C0 6.08767 1.63436e-07 3.5025 1.60622 1.89626C3.21246 0.290039 5.81124 0.290039 11.0089 0.290039C11.8397 0.290039 12.5054 0.290039 13.0656 0.31288C13.0473 0.422464 13.0375 0.534255 13.0371 0.647281L13.0245 4.53324C13.0244 6.03737 13.0242 7.36665 13.1683 8.43811C13.3245 9.59951 13.683 10.7607 14.6308 11.7084C15.5784 12.6562 16.7396 13.0147 17.901 13.1709C18.9726 13.315 20.3018 13.3148 21.8059 13.3147H21.936H27.3616C27.42 14.0472 27.42 14.9462 27.42 16.1428V16.742C27.42 21.9124 27.42 24.4977 25.8137 26.1038C24.2076 27.71 21.6223 27.71 16.452 27.71Z" fill="#058173"/>
<path d="M11.7366 18.7963C12.1139 18.3718 12.0756 17.7218 11.6512 17.3446C11.2267 16.9673 10.5768 17.0055 10.1995 17.4299L7.31201 20.6784L6.25253 19.4864C5.87526 19.062 5.22532 19.0238 4.80089 19.4011C4.37644 19.7783 4.3382 20.4283 4.71549 20.8528L6.54348 22.9093C6.73861 23.1288 7.0183 23.2543 7.31201 23.2543C7.60572 23.2543 7.8854 23.1288 8.08054 22.9093L11.7366 18.7963Z" fill="#058173"/>
<path d="M13.0371 0.646658L13.0245 4.53262C13.0243 6.03675 13.0242 7.36603 13.1683 8.43749C13.3245 9.59889 13.683 10.7601 14.6307 11.7079C15.5785 12.6555 16.7396 13.014 17.9011 13.1702C18.9726 13.3143 20.3017 13.3142 21.8059 13.314H27.3616C27.3786 13.5273 27.3906 13.7547 27.3991 13.9994H27.42C27.42 13.6326 27.42 13.4493 27.4064 13.2334C27.3288 12.007 26.8191 10.6017 26.0922 9.61085C25.9643 9.43641 25.8766 9.33171 25.7017 9.12229C24.6152 7.82177 23.185 6.20172 21.936 5.08792C20.8244 4.09657 19.3019 3.01199 17.9739 2.12515C16.8333 1.36321 16.2628 0.982238 15.4806 0.699086C15.2733 0.624024 14.9998 0.541105 14.7857 0.48839C14.2592 0.35879 13.7467 0.313711 13.0245 0.298096L13.0371 0.646658Z" fill="#058173"/>
</svg>
