<svg width="22" height="23" viewBox="0 0 22 23" fill="none" xmlns="http://www.w3.org/2000/svg">
<path d="M11 14.5C12.6569 14.5 14 13.1569 14 11.5C14 9.84315 12.6569 8.5 11 8.5C9.34315 8.5 8 9.84315 8 11.5C8 13.1569 9.34315 14.5 11 14.5Z" stroke="#2B2B2B" stroke-width="2"/>
<path d="M12.7654 1.65224C12.3978 1.5 11.9319 1.5 11 1.5C10.0681 1.5 9.6022 1.5 9.2346 1.65224C8.74457 1.85523 8.35522 2.24458 8.15223 2.73463C8.05957 2.95834 8.0233 3.2185 8.00911 3.59799C7.98826 4.15568 7.70226 4.67189 7.21894 4.95093C6.73564 5.22996 6.14559 5.21954 5.65219 4.95876C5.31645 4.7813 5.07301 4.68262 4.83294 4.65102C4.30704 4.58178 3.77518 4.72429 3.35436 5.0472C3.03874 5.28938 2.80577 5.6929 2.33983 6.49993C1.87389 7.30697 1.64092 7.71048 1.58899 8.10491C1.51976 8.6308 1.66227 9.16266 1.98518 9.5835C2.13256 9.7756 2.3397 9.937 2.66119 10.139C3.1338 10.436 3.43789 10.9419 3.43786 11.5C3.43783 12.0581 3.13375 12.5639 2.66118 12.8608C2.33965 13.0629 2.13248 13.2244 1.98508 13.4165C1.66217 13.8373 1.51966 14.3691 1.5889 14.895C1.64082 15.2894 1.87379 15.693 2.33973 16.5C2.80568 17.307 3.03865 17.7106 3.35426 17.9527C3.77508 18.2756 4.30694 18.4181 4.83284 18.3489C5.07289 18.3173 5.31632 18.2186 5.65204 18.0412C6.14547 17.7804 6.73556 17.77 7.2189 18.049C7.70224 18.3281 7.98826 18.8443 8.00911 19.4021C8.02331 19.7815 8.05957 20.0417 8.15223 20.2654C8.35522 20.7554 8.74457 21.1448 9.2346 21.3478C9.6022 21.5 10.0681 21.5 11 21.5C11.9319 21.5 12.3978 21.5 12.7654 21.3478C13.2554 21.1448 13.6448 20.7554 13.8477 20.2654C13.9404 20.0417 13.9767 19.7815 13.9909 19.402C14.0117 18.8443 14.2977 18.3281 14.781 18.049C15.2643 17.7699 15.8544 17.7804 16.3479 18.0412C16.6836 18.2186 16.927 18.3172 17.167 18.3488C17.6929 18.4181 18.2248 18.2756 18.6456 17.9527C18.9612 17.7105 19.1942 17.307 19.6601 16.4999C20.1261 15.6929 20.3591 15.2894 20.411 14.895C20.4802 14.3691 20.3377 13.8372 20.0148 13.4164C19.8674 13.2243 19.6602 13.0628 19.3387 12.8608C18.8662 12.5639 18.5621 12.058 18.5621 11.4999C18.5621 10.9418 18.8662 10.4361 19.3387 10.1392C19.6603 9.9371 19.8675 9.7757 20.0149 9.5835C20.3378 9.16273 20.4803 8.63087 20.4111 8.10497C20.3592 7.71055 20.1262 7.30703 19.6602 6.5C19.1943 5.69297 18.9613 5.28945 18.6457 5.04727C18.2249 4.72436 17.693 4.58185 17.1671 4.65109C16.9271 4.68269 16.6837 4.78136 16.3479 4.9588C15.8545 5.21959 15.2644 5.23002 14.7811 4.95096C14.2977 4.67191 14.0117 4.15566 13.9909 3.59794C13.9767 3.21848 13.9404 2.95833 13.8477 2.73463C13.6448 2.24458 13.2554 1.85523 12.7654 1.65224Z" stroke="#2B2B2B" stroke-width="2"/>
</svg>
