<svg width="21" height="20" viewBox="0 0 21 20" fill="none" xmlns="http://www.w3.org/2000/svg">
<path d="M18.54 4.81887L12.78 0.78887C11.21 -0.31113 8.79999 -0.25113 7.28999 0.91887L2.27999 4.82887C1.27999 5.60887 0.48999 7.20887 0.48999 8.46887V15.3689C0.48999 17.9189 2.55999 19.9989 5.10999 19.9989H15.89C18.44 19.9989 20.51 17.9289 20.51 15.3789V8.59887C20.51 7.24887 19.64 5.58887 18.54 4.81887ZM11.25 15.9989C11.25 16.4089 10.91 16.7489 10.5 16.7489C10.09 16.7489 9.74999 16.4089 9.74999 15.9989V12.9989C9.74999 12.5889 10.09 12.2489 10.5 12.2489C10.91 12.2489 11.25 12.5889 11.25 12.9989V15.9989Z" fill="#2B2B2B"/>
</svg>
