<svg width="22" height="23" viewBox="0 0 22 23" fill="none" xmlns="http://www.w3.org/2000/svg">
<path d="M14.6807 14.0869C18.1708 14.0869 21 11.2692 21 7.79344C21 4.31767 18.1708 1.5 14.6807 1.5C11.1907 1.5 8.3615 4.31767 8.3615 7.79344C8.3615 9.40338 9.0963 10.5743 9.0963 10.5743L1.45441 18.1849C1.1115 18.5264 0.63143 19.4143 1.45441 20.2339L2.33616 21.1121C2.67905 21.4048 3.54119 21.8146 4.2466 21.1121L5.27531 20.0876C6.30403 21.1121 7.4797 20.5267 7.92058 19.9412C8.65538 18.9167 7.77362 17.8922 7.77362 17.8922L8.06754 17.5995C9.4783 19.0045 10.7128 18.1849 11.1537 17.5995C11.8885 16.575 11.1537 15.5505 11.1537 15.5505C10.8598 14.965 10.272 14.965 11.0067 14.2333L11.8885 13.3551C12.5939 13.9405 14.0439 14.0869 14.6807 14.0869Z" stroke="#2B2B2B" stroke-width="2" stroke-linejoin="round"/>
<path opacity="0.5" d="M16.8851 7.79357C16.8851 9.00605 15.8982 9.98894 14.6807 9.98894C13.4633 9.98894 12.4763 9.00605 12.4763 7.79357C12.4763 6.58109 13.4633 5.59818 14.6807 5.59818C15.8982 5.59818 16.8851 6.58109 16.8851 7.79357Z" stroke="#2B2B2B" stroke-width="2"/>
</svg>
