<svg width="21" height="22" viewBox="0 0 21 22" fill="none" xmlns="http://www.w3.org/2000/svg">
<path fill-rule="evenodd" clip-rule="evenodd" d="M9.54971 0.931625C4.60598 0.931625 0.598297 4.93933 0.598297 9.88308C0.598297 14.8268 4.60598 18.8345 9.54971 18.8345C11.6421 18.8345 13.5669 18.1166 15.0911 16.9137L18.9373 20.7599C19.3486 21.1712 20.0154 21.1712 20.4266 20.7599C20.8379 20.3487 20.8379 19.6819 20.4266 19.2706L16.5804 15.4243C17.7832 13.9002 18.5011 11.9754 18.5011 9.88308C18.5011 4.93933 14.4934 0.931625 9.54971 0.931625ZM2.70451 9.88308C2.70451 6.10257 5.76921 3.03785 9.54971 3.03785C13.3303 3.03785 16.3949 6.10257 16.3949 9.88308C16.3949 13.6637 13.3303 16.7283 9.54971 16.7283C5.76921 16.7283 2.70451 13.6637 2.70451 9.88308Z" fill="black"/>
</svg>
