<svg width="34" height="34" viewBox="0 0 34 34" fill="none" xmlns="http://www.w3.org/2000/svg">
<path d="M29.711 0.50835C29.4439 -0.16945 28.4852 -0.16945 28.2181 0.50835L27.5037 2.32085C27.4222 2.52778 27.2586 2.69159 27.0518 2.77321L25.2404 3.48804C24.563 3.75536 24.563 4.7146 25.2404 4.98192L27.0518 5.69677C27.2586 5.77839 27.4222 5.94218 27.5037 6.14912L28.2181 7.96161C28.4852 8.63941 29.4439 8.63941 29.711 7.96163L30.4253 6.14912C30.5068 5.94218 30.6705 5.77839 30.8773 5.69677L32.6887 4.98192C33.366 4.7146 33.366 3.75536 32.6887 3.48804L30.8773 2.77321C30.6705 2.69159 30.5068 2.52778 30.4253 2.32085L29.711 0.50835Z" fill="#058173"/>
<path d="M23.292 10.1435C23.0247 9.46575 22.0662 9.46575 21.799 10.1435L21.5385 10.8044C21.457 11.0113 21.2934 11.1751 21.0866 11.2567L20.4261 11.5174C19.7487 11.7847 19.7487 12.7439 20.4261 13.0112L21.0866 13.2719C21.2934 13.3534 21.457 13.5173 21.5385 13.7243L21.799 14.3851C22.0662 15.0629 23.0247 15.0629 23.292 14.3851L23.5524 13.7243C23.6339 13.5173 23.7976 13.3534 24.0044 13.2719L24.6648 13.0112C25.3422 12.7439 25.3422 11.7847 24.6648 11.5174L24.0044 11.2567C23.7976 11.1751 23.6339 11.0113 23.5524 10.8044L23.292 10.1435Z" fill="#058173"/>
<path d="M16.5982 33.0965C25.7651 33.0965 33.1964 25.6875 33.1964 16.5482C33.1964 15.7826 32.0453 15.656 31.6482 16.3113C29.7588 19.4286 26.3273 21.5127 22.4076 21.5127C16.449 21.5127 11.6188 16.697 11.6188 10.7564C11.6188 6.84841 13.7091 3.42722 16.8359 1.54355C17.4932 1.14757 17.3662 0 16.5982 0C7.43127 0 0 7.4089 0 16.5482C0 25.6875 7.43127 33.0965 16.5982 33.0965Z" fill="#058173"/>
</svg>
