<svg width="28" height="28" viewBox="0 0 28 28" fill="none" xmlns="http://www.w3.org/2000/svg">
<path fill-rule="evenodd" clip-rule="evenodd" d="M1.97644 21.1535L0.0690431 26.2398C-0.00419986 26.4355 -0.0195527 26.6482 0.0248187 26.8524C0.0691902 27.0567 0.17141 27.2438 0.319271 27.3915C0.467131 27.5392 0.654383 27.6412 0.858663 27.6854C1.06294 27.7296 1.27562 27.714 1.47128 27.6405L6.55622 25.7332C7.13823 25.5152 7.66684 25.1752 8.10652 24.7359L22.8359 10.0068C22.8359 10.0068 22.322 8.4667 20.7833 6.92658C19.2446 5.38791 17.703 4.87406 17.703 4.87406L2.97368 19.6032C2.53445 20.0429 2.19442 20.5715 1.97644 21.1535ZM19.757 2.82008L21.7646 0.812552C22.1246 0.452561 22.6051 0.223213 23.1073 0.307404C23.8142 0.42353 24.8957 0.774811 25.9147 1.79527C26.9352 2.81572 27.2864 3.89569 27.4026 4.60261C27.4868 5.10486 27.2574 5.58533 26.8974 5.94532L24.8884 7.95284C24.8884 7.95284 24.376 6.41418 22.8359 4.87551C21.2972 3.33394 19.757 2.82008 19.757 2.82008Z" fill="#006A5F"/>
</svg>
