<svg width="20" height="21" viewBox="0 0 20 21" fill="none" xmlns="http://www.w3.org/2000/svg">
<path fill-rule="evenodd" clip-rule="evenodd" d="M12.2222 11.6111C12.7921 11.6111 13.2617 12.04 13.3259 12.5926L13.3333 12.7222V19.3889C13.3333 20.0026 12.8359 20.5 12.2222 20.5C11.6524 20.5 11.1828 20.0711 11.1186 19.5185L11.1111 19.3889V12.7222C11.1111 12.1086 11.6086 11.6111 12.2222 11.6111ZM15.5556 16.6111C16.1692 16.6111 16.6667 17.1086 16.6667 17.7222V19.3889C16.6667 20.0026 16.1692 20.5 15.5556 20.5C14.9419 20.5 14.4444 20.0026 14.4444 19.3889V17.7222C14.4444 17.1086 14.9419 16.6111 15.5556 16.6111ZM18.8889 11.6111C19.4587 11.6111 19.9283 12.04 19.9925 12.5926L20 12.7222V19.3889C20 20.0026 19.5026 20.5 18.8889 20.5C18.3191 20.5 17.8494 20.0711 17.7853 19.5185L17.7778 19.3889V12.7222C17.7778 12.1086 18.2752 11.6111 18.8889 11.6111ZM6.66667 11.6111C7.894 11.6111 8.88889 12.606 8.88889 13.8333V18.2778C8.88889 19.5051 7.894 20.5 6.66667 20.5H2.22222C0.994922 20.5 0 19.5051 0 18.2778V13.8333C0 12.606 0.994922 11.6111 2.22222 11.6111H6.66667ZM6.66667 13.8333H2.22222V18.2778H6.66667V13.8333ZM15.5556 11.6111C16.1254 11.6111 16.595 12.04 16.6592 12.5926L16.6667 12.7222V14.3889C16.6667 15.0026 16.1692 15.5 15.5556 15.5C14.9857 15.5 14.5161 15.0711 14.4519 14.5185L14.4444 14.3889V12.7222C14.4444 12.1086 14.9419 11.6111 15.5556 11.6111ZM6.66667 0.5C7.894 0.5 8.88889 1.49492 8.88889 2.72222V7.16667C8.88889 8.394 7.894 9.38889 6.66667 9.38889H2.22222C0.994922 9.38889 0 8.394 0 7.16667V2.72222C0 1.49492 0.994922 0.5 2.22222 0.5H6.66667ZM17.7778 0.5C19.0051 0.5 20 1.49492 20 2.72222V7.16667C20 8.394 19.0051 9.38889 17.7778 9.38889H13.3333C12.106 9.38889 11.1111 8.394 11.1111 7.16667V2.72222C11.1111 1.49492 12.106 0.5 13.3333 0.5H17.7778ZM6.66667 2.72222H2.22222V7.16667H6.66667V2.72222ZM17.7778 2.72222H13.3333V7.16667H17.7778V2.72222Z" fill="#2B2B2B"/>
</svg>
