<svg width="28" height="28" viewBox="0 0 28 28" fill="none" xmlns="http://www.w3.org/2000/svg">
<path fill-rule="evenodd" clip-rule="evenodd" d="M0.575089 4.51596C1.36197e-07 5.25338 0 7.44532 0 11.8293V13.9882C0 21.7179 6.45735 25.4691 10.5088 27.0619C11.6078 27.4939 12.1573 27.71 13.71 27.71V0.289978C12.474 0.289978 11.2803 0.657735 8.89279 1.39325L8.02021 1.66206C3.44017 3.07305 1.15016 3.77854 0.575089 4.51596Z" fill="#058173"/>
<path opacity="0.5" d="M27.42 13.9882V11.8293C27.42 7.44532 27.42 5.25338 26.8449 4.51596C26.2699 3.77854 23.9798 3.07305 19.3998 1.66206L18.5272 1.39325C16.1397 0.657735 14.946 0.289978 13.71 0.289978V27.71C15.2627 27.71 15.8122 27.4939 16.9111 27.0619C20.9626 25.4691 27.42 21.7179 27.42 13.9882Z" fill="#058173"/>
</svg>
