<svg width="28" height="28" viewBox="0 0 28 28" fill="none" xmlns="http://www.w3.org/2000/svg">
<path d="M13.1347 4.09595C14.0871 1.6681 14.5634 0.454158 15.5593 0.304515C16.5553 0.154872 17.4114 1.16861 19.1236 3.19608L19.5666 3.7206C20.0531 4.29674 20.2963 4.58483 20.6271 4.74932C20.958 4.91381 21.3387 4.93609 22.1004 4.98066L22.7937 5.02124C25.474 5.17811 26.8141 5.25654 27.2792 6.13274C27.7442 7.00895 27.0262 8.10264 25.5902 10.2901L25.2187 10.856C24.8107 11.4776 24.6067 11.7884 24.5516 12.1432C24.4965 12.498 24.5964 12.8568 24.7964 13.5742L24.9786 14.2275C25.6826 16.7523 26.0347 18.0147 25.3262 18.7058C24.6177 19.3971 23.3178 19.0592 20.718 18.3836L20.0456 18.2088C19.3068 18.0169 18.9374 17.9209 18.5726 17.9756C18.2078 18.0305 17.8887 18.2299 17.2508 18.6288L16.6699 18.9919C14.4248 20.3954 13.3023 21.0972 12.3993 20.6482C11.4963 20.1991 11.411 18.8966 11.2403 16.2918L11.1962 15.6178C11.1476 14.8776 11.1234 14.5074 10.953 14.1865C10.7826 13.8655 10.4855 13.63 9.8911 13.1591L9.34998 12.7302C7.2584 11.0729 6.21261 10.2442 6.36308 9.27555C6.51356 8.30685 7.76063 7.83967 10.2548 6.90532L10.9001 6.66359C11.6088 6.39808 11.9632 6.26533 12.2227 6.01214C12.4823 5.75894 12.6176 5.41399 12.8884 4.72407L13.1347 4.09595Z" fill="#058173"/>
<g opacity="0.5">
<path d="M4.53799 10.6996C1.19676 13.892 -0.993951 19.2176 0.454136 27.71C1.74667 24.1405 5.28824 21.1848 9.4765 19.4191C9.33035 18.6065 9.26552 17.6143 9.19716 16.5681L9.1437 15.7523C9.13127 15.5624 9.12178 15.4184 9.11165 15.2945C9.10744 15.2431 9.10349 15.2 9.09981 15.1637C9.06797 15.1364 9.02917 15.1039 8.98155 15.065C8.88225 14.9838 8.76575 14.8914 8.61359 14.7708L7.96211 14.2546C7.01187 13.5019 6.1267 12.8008 5.51811 12.1542C5.1711 11.7857 4.78303 11.2996 4.53799 10.6996Z" fill="#058173"/>
<path d="M11.443 18.6929C11.4361 18.6416 11.4292 18.5892 11.4225 18.5359L11.4994 18.6749C11.4806 18.6809 11.4618 18.6868 11.443 18.6929Z" fill="#058173"/>
</g>
</svg>
