<svg width="34" height="34" viewBox="0 0 34 34" fill="none" xmlns="http://www.w3.org/2000/svg">
<path d="M26.5574 16.5323C26.5574 22.0106 22.0986 26.4516 16.5984 26.4516C11.0981 26.4516 6.63934 22.0106 6.63934 16.5323C6.63934 11.054 11.0981 6.61292 16.5984 6.61292C22.0986 6.61292 26.5574 11.054 26.5574 16.5323Z" fill="white"/>
<path fill-rule="evenodd" clip-rule="evenodd" d="M16.5984 0C17.2379 0 17.7564 0.516406 17.7564 1.15341V2.6913C17.7564 3.3283 17.2379 3.84471 16.5984 3.84471C15.9588 3.84471 15.4403 3.3283 15.4403 2.6913V1.15341C15.4403 0.516406 15.9588 0 16.5984 0ZM4.86156 4.8422C5.31379 4.39177 6.04702 4.39177 6.49925 4.8422L7.10581 5.44634C7.55804 5.89677 7.55804 6.62707 7.10581 7.07751C6.65356 7.52794 5.92035 7.52794 5.46812 7.07751L4.86156 6.47337C4.40933 6.02294 4.40933 5.29263 4.86156 4.8422ZM28.3347 4.8426C28.787 5.29303 28.787 6.02334 28.3347 6.47377L27.7282 7.07791C27.276 7.52834 26.5427 7.52834 26.0905 7.07791C25.6382 6.62747 25.6382 5.89717 26.0905 5.44674L26.6971 4.8426C27.1494 4.39217 27.8825 4.39217 28.3347 4.8426ZM0 16.5323C0 15.8953 0.518471 15.3788 1.15803 15.3788H2.70206C3.34161 15.3788 3.86008 15.8953 3.86008 16.5323C3.86008 17.1692 3.34161 17.6857 2.70206 17.6857H1.15803C0.518471 17.6857 0 17.1692 0 16.5323ZM29.3366 16.5323C29.3366 15.8953 29.8551 15.3788 30.4947 15.3788H32.0387C32.6782 15.3788 33.1967 15.8953 33.1967 16.5323C33.1967 17.1692 32.6782 17.6857 32.0387 17.6857H30.4947C29.8551 17.6857 29.3366 17.1692 29.3366 16.5323ZM26.0905 25.9866C26.5427 25.5361 27.276 25.5361 27.7282 25.9866L28.3347 26.5908C28.787 27.0412 28.787 27.7714 28.3347 28.2219C27.8825 28.6723 27.1494 28.6723 26.6971 28.2219L26.0905 27.6178C25.6382 27.1673 25.6382 26.437 26.0905 25.9866ZM7.10581 25.987C7.55804 26.4375 7.55804 27.1678 7.10581 27.6182L6.49925 28.2223C6.04702 28.6728 5.31379 28.6728 4.86156 28.2223C4.40933 27.7719 4.40933 27.0415 4.86156 26.5911L5.46812 25.987C5.92035 25.5366 6.65356 25.5366 7.10581 25.987ZM16.5984 29.2198C17.2379 29.2198 17.7564 29.7362 17.7564 30.3732V31.9111C17.7564 32.5481 17.2379 33.0645 16.5984 33.0645C15.9588 33.0645 15.4403 32.5481 15.4403 31.9111V30.3732C15.4403 29.7362 15.9588 29.2198 16.5984 29.2198Z" fill="white"/>
</svg>
