<svg width="12" height="3" viewBox="0 0 12 3" fill="none" xmlns="http://www.w3.org/2000/svg">
<path d="M9 1.5C9 1.20333 9.08797 0.913319 9.2528 0.666645C9.41762 0.419971 9.65188 0.227712 9.92597 0.114181C10.2001 0.000649691 10.5017 -0.0290554 10.7926 0.0288224C11.0836 0.0867002 11.3509 0.229562 11.5607 0.439341C11.7704 0.649119 11.9133 0.916393 11.9712 1.20736C12.0291 1.49834 11.9993 1.79994 11.8858 2.07403C11.7723 2.34811 11.58 2.58238 11.3334 2.7472C11.0867 2.91203 10.7967 3 10.5 3C10.1022 3 9.72064 2.84196 9.43934 2.56066C9.15804 2.27936 9 1.89782 9 1.5ZM1.5 3C1.79667 3 2.08668 2.91203 2.33335 2.7472C2.58003 2.58238 2.77229 2.34811 2.88582 2.07403C2.99935 1.79994 3.02906 1.49834 2.97118 1.20736C2.9133 0.916393 2.77044 0.649119 2.56066 0.439341C2.35088 0.229562 2.08361 0.0867002 1.79264 0.0288224C1.50166 -0.0290554 1.20006 0.000649691 0.925975 0.114181C0.651886 0.227712 0.417618 0.419971 0.252796 0.666645C0.0879736 0.913319 0 1.20333 0 1.5C0 1.89782 0.158035 2.27936 0.43934 2.56066C0.720644 2.84196 1.10218 3 1.5 3ZM6 3C6.29667 3 6.58668 2.91203 6.83335 2.7472C7.08003 2.58238 7.27229 2.34811 7.38582 2.07403C7.49935 1.79994 7.52906 1.49834 7.47118 1.20736C7.4133 0.916393 7.27044 0.649119 7.06066 0.439341C6.85088 0.229562 6.58361 0.0867002 6.29263 0.0288224C6.00166 -0.0290554 5.70006 0.000649691 5.42597 0.114181C5.15189 0.227712 4.91762 0.419971 4.7528 0.666645C4.58797 0.913319 4.5 1.20333 4.5 1.5C4.5 1.89782 4.65804 2.27936 4.93934 2.56066C5.22064 2.84196 5.60217 3 6 3Z" fill="black"/>
</svg>
