<svg width="27" height="32" viewBox="0 0 27 32" fill="none" xmlns="http://www.w3.org/2000/svg">
<path d="M0 7.01752C0 6.2424 0.51807 5.61404 1.15715 5.61404L5.1535 5.61329C5.94753 5.58887 6.64803 4.97651 6.91821 4.07058C6.92532 4.04675 6.93348 4.01738 6.96278 3.91077L7.13497 3.28408C7.24035 2.89984 7.33215 2.56508 7.46063 2.26586C7.96814 1.08377 8.90712 0.262914 9.99221 0.0527546C10.2669 -0.000445119 10.5577 -0.000221001 10.8916 3.4998e-05H16.1087C16.4426 -0.000221001 16.7334 -0.000445119 17.0081 0.0527546C18.0932 0.262914 19.0322 1.08377 19.5396 2.26586C19.6681 2.56508 19.7599 2.89984 19.8652 3.28408L20.0374 3.91077C20.0667 4.01738 20.075 4.04675 20.082 4.07058C20.3523 4.97651 21.1917 5.58962 21.9857 5.61404H25.8429C26.4819 5.61404 27 6.2424 27 7.01752C27 7.79265 26.4819 8.42102 25.8429 8.42102H1.15715C0.51807 8.42102 0 7.79265 0 7.01752Z" fill="#058173"/>
<path fill-rule="evenodd" clip-rule="evenodd" d="M9.63814 15.1703C10.2564 15.1009 10.8076 15.6074 10.8694 16.3015L11.6194 24.7226C11.6812 25.4167 11.2302 26.0357 10.612 26.1051C9.99379 26.1746 9.44248 25.668 9.38067 24.9739L8.63067 16.5529C8.56884 15.8588 9.0199 15.2397 9.63814 15.1703Z" fill="#058173"/>
<path fill-rule="evenodd" clip-rule="evenodd" d="M17.362 15.1703C17.9802 15.2397 18.4312 15.8588 18.3694 16.5529L17.6194 24.9739C17.5576 25.668 17.0064 26.1746 16.3881 26.1051C15.7699 26.0357 15.3189 25.4167 15.3807 24.7226L16.1307 16.3015C16.1925 15.6074 16.7437 15.1009 17.362 15.1703Z" fill="#058173"/>
<path opacity="0.5" d="M12.8934 32H14.1066C18.2806 32 20.3678 32 21.7247 30.5826C23.0817 29.1651 23.2204 26.84 23.4981 22.1896L23.8982 15.489C24.0489 12.9658 24.1242 11.7043 23.4434 10.9049C22.7627 10.1054 21.6131 10.1054 19.314 10.1054H7.68607C5.3869 10.1054 4.23732 10.1054 3.55657 10.9049C2.87583 11.7043 2.95116 12.9658 3.10182 15.489L3.50188 22.1896C3.77955 26.84 3.91837 29.1651 5.27533 30.5826C6.63229 32 8.71933 32 12.8934 32Z" fill="#058173"/>
</svg>
