<svg width="27" height="28" viewBox="0 0 27 28" fill="none" xmlns="http://www.w3.org/2000/svg">
<path d="M13.4184 0.775465L10.0849 8.35181H6.75139C6.19812 8.35181 5.65867 8.39232 5.13306 8.50037L6.51625 5.25915L6.57158 5.1376L6.65457 4.92152C6.69607 4.82699 6.72373 4.74596 6.76523 4.67843C8.36973 1.04557 10.1679 -0.0888596 13.4184 0.775465Z" fill="#058173"/>
<path d="M22.8129 8.55199L22.7853 8.53848C21.9553 8.3089 21.1116 8.18735 20.254 8.18735H11.5952L14.7074 1.1242L14.7489 1.02966C14.9425 1.09719 15.15 1.19172 15.3575 1.25925L18.4144 2.51522C20.1157 3.20398 21.3052 3.91975 22.0383 4.78407C22.1628 4.94613 22.2735 5.09469 22.3841 5.27026C22.5086 5.45933 22.6054 5.6484 22.6608 5.85097C22.7161 5.97252 22.7576 6.08056 22.7853 6.20211C22.9927 6.89086 23.0066 7.67416 22.8129 8.55199Z" fill="#82C0B9"/>
<path d="M14.2212 21.6358H14.567C14.9819 21.6358 15.3277 21.2712 15.3277 20.8255C15.3277 20.2583 15.1618 20.1773 14.8021 20.0422L14.2212 19.8397V21.6358Z" fill="#058173"/>
<path d="M22.2003 10.6457C21.5779 10.4701 20.9278 10.3756 20.25 10.3756H6.74999C5.80942 10.3756 4.92417 10.5512 4.09426 10.9023C1.6875 11.9152 0 14.2516 0 16.9661V19.5996C0 19.9237 0.0276638 20.2343 0.0691597 20.5584C0.373463 24.853 2.72489 27.1489 7.12345 27.4325C7.44159 27.473 7.75972 27.5 8.10552 27.5H18.8945C24.0123 27.5 26.7095 25.1231 26.9723 20.3964C26.9862 20.1398 27 19.8697 27 19.5996V16.9661C27 13.9815 24.9667 11.4695 22.2003 10.6457ZM15.2705 18.7217C15.9068 18.9378 16.7644 19.397 16.7644 20.8285C16.7644 22.0575 15.7823 23.0434 14.5651 23.0434H14.2193V23.3405C14.2193 23.7321 13.9011 24.0427 13.5 24.0427C13.0989 24.0427 12.7808 23.7321 12.7808 23.3405V23.0434H12.6563C11.3284 23.0434 10.2356 21.9494 10.2356 20.5989C10.2356 20.2073 10.5538 19.8967 10.9549 19.8967C11.3561 19.8967 11.6742 20.2073 11.6742 20.5989C11.6742 21.1662 12.1168 21.6388 12.6563 21.6388H12.7808V19.3565L11.7295 18.9918C11.0933 18.7758 10.2356 18.3166 10.2356 16.885C10.2356 15.6561 11.2177 14.6702 12.435 14.6702H12.7808V14.3731C12.7808 13.9815 13.0989 13.6708 13.5 13.6708C13.9011 13.6708 14.2193 13.9815 14.2193 14.3731V14.6702H14.3438C15.6716 14.6702 16.7644 15.7641 16.7644 17.1146C16.7644 17.5063 16.4462 17.8169 16.0451 17.8169C15.644 17.8169 15.3258 17.5063 15.3258 17.1146C15.3258 16.5474 14.8832 16.0747 14.3438 16.0747H14.2193V18.3571L15.2705 18.7217Z" fill="#058173"/>
<path d="M11.6763 16.8834C11.6763 17.4506 11.8423 17.5317 12.2019 17.6667L12.7828 17.8693V16.0731H12.437C12.0082 16.0731 11.6763 16.4378 11.6763 16.8834Z" fill="#058173"/>
</svg>
